<?xml version="1.0" encoding="UTF-8" standalone="no"?><!DOCTYPE svg PUBLIC "-//W3C//DTD SVG 1.1//EN" "http://www.w3.org/Graphics/SVG/1.1/DTD/svg11.dtd"><svg width="60px" height="60px" version="1.1" xmlns="http://www.w3.org/2000/svg" xmlns:xlink="http://www.w3.org/1999/xlink" xml:space="preserve" xmlns:serif="http://www.serif.com/" style="fill-rule:evenodd;clip-rule:evenodd;stroke-linecap:round;stroke-linejoin:round;stroke-miterlimit:10;"><g transform="matrix(1,0,0,1,-1213.024213,-352.598083)"><g id="Tavola-da-disegno1" serif:id="Tavola da disegno1" transform="matrix(0.083783,0,0,0.083853,1136.19515,352.598083)"><rect x="916.996" y="0" width="708.663" height="708.075" style="fill:none;"/><g transform="matrix(49.731388,0,0,49.69016,-5739.560337,-6640.915824)"><g transform="matrix(0,-1,-1,0,143.3369,138.4097)"><path d="M-2.362,2.362L2.362,2.362" style="fill:none;fill-rule:nonzero;stroke:rgb(93,71,97);stroke-width:2.5px;"/></g><g transform="matrix(-0.86602,-0.50001,-0.50001,0.86602,141.839868,139.907361)"><path d="M-4.407,1.181L0.316,1.181" style="fill:none;fill-rule:nonzero;stroke:rgb(93,71,97);stroke-width:2.5px;"/></g><g transform="matrix(0.86602,-0.50001,-0.50001,-0.86602,137.747968,143.998439)"><path d="M-0.316,1.181L4.407,1.181" style="fill:none;fill-rule:nonzero;stroke:rgb(93,71,97);stroke-width:2.5px;"/></g><g transform="matrix(0.86602,0.50001,0.50001,-0.86602,137.747968,137.544961)"><path d="M-0.316,-1.181L4.407,-1.181" style="fill:none;fill-rule:nonzero;stroke:rgb(178,178,178);stroke-width:2.5px;"/></g><g transform="matrix(-0.86602,0.50001,0.50001,0.86602,141.839868,141.636039)"><path d="M-4.407,-1.181L0.316,-1.181" style="fill:none;fill-rule:nonzero;stroke:rgb(178,178,178);stroke-width:2.5px;"/></g><g transform="matrix(0,1,1,0,143.3369,143.1337)"><path d="M-2.362,-2.362L2.362,-2.362" style="fill:none;fill-rule:nonzero;stroke:rgb(178,178,178);stroke-width:2.5px;"/></g></g></g></g></svg>